<svg width="207" height="250" viewBox="0 0 207 250" fill="none" xmlns="http://www.w3.org/2000/svg">
<path d="M81 5C81 2.23857 83.2386 0 86 0H106C108.761 0 111 2.23858 111 5V250H81V5Z" fill="#00DC82"/>
<path d="M0 220H81V250H5C2.23858 250 0 247.761 0 245V220Z" fill="#00DC82"/>
<path d="M0 197C0 194.239 2.23858 192 5 192H25C27.7614 192 30 194.239 30 197V220H0V197Z" fill="#00DC82"/>
<path d="M177 5C177 2.23857 179.239 0 182 0H202C204.761 0 207 2.23858 207 5V245C207 247.761 204.761 250 202 250H177V5Z" fill="#020420"/>
<rect x="111" y="220" width="66" height="30" fill="#020420"/>
<path d="M81 5C81 2.23857 83.2386 0 86 0H106C108.761 0 111 2.23858 111 5V250H81V5Z" fill="#00DC82"/>
<path d="M0 220H81V250H5C2.23858 250 0 247.761 0 245V220Z" fill="#00DC82"/>
<path d="M0 197C0 194.239 2.23858 192 5 192H25C27.7614 192 30 194.239 30 197V220H0V197Z" fill="#00DC82"/>
<path d="M177 5C177 2.23857 179.239 0 182 0H202C204.761 0 207 2.23858 207 5V245C207 247.761 204.761 250 202 250H177V5Z" fill="#020420"/>
<rect x="111" y="220" width="66" height="30" fill="#020420"/>
</svg>
